<svg viewBox="0 0 160 45" xmlns="http://www.w3.org/2000/svg" style="max-height: 500px" width="160" height="45">
  <defs>
    <style type="text/css">
      @import url('https://fonts.googleapis.com/css2?family=Plus+Jakarta+Sans:wght@900&amp;family=IBM+Plex+Mono:wght@700&amp;display=swap');
      .logo-text {
        font-family: 'Plus Jakarta Sans', sans-serif;
        font-weight: 900;
        text-transform: uppercase;
        letter-spacing: 0.15em;
      }
      .sub-text {
        font-family: 'IBM Plex Mono', monospace;
        font-weight: 700;
        text-transform: uppercase;
        letter-spacing: 0.22em;
      }
    </style>
    <linearGradient y2="100%" x2="100%" y1="0%" x1="0%" id="triageShield">
      <stop stop-color="#8B5CF6" offset="0%"/>
      <stop stop-color="#A855F7" offset="100%"/>
    </linearGradient>
  </defs>
  
  <g transform="translate(0, 2) scale(0.36)">
    <path fill="url(#triageShield)" d="M 42 10 L 10 20 L 10 42 L 42 42 Z"/>
    <path fill="url(#triageShield)" d="M 58 10 L 90 20 L 90 42 L 58 42 Z"/>
    <path fill="url(#triageShield)" d="M 10 58 L 10 70 C 10 85 25 95 42 100 L 42 58 Z"/>
    <path fill="url(#triageShield)" d="M 90 58 L 90 70 C 90 85 75 95 58 100 L 58 58 Z"/>
    
    <circle fill="#FFFFFF" r="5" cy="50" cx="50"/>
    
    <rect fill="#FFFFFF" height="8" width="4" y="28" x="48"/>
    <rect fill="#FFFFFF" height="8" width="4" y="64" x="48"/>
    <rect fill="#FFFFFF" height="4" width="8" y="48" x="28"/>
    <rect fill="#FFFFFF" height="4" width="8" y="48" x="64"/>
  </g>

  <text fill="#FFFFFF" font-size="18" class="logo-text" y="23" x="44">T<tspan fill="#8B5CF6">RI</tspan>AGE</text>
  <text fill="#9CA3AF" font-size="6.5" class="sub-text" y="34" x="44">RI SOFTWARE SOLUTIONS</text>
</svg>